# xmcd
#
# Track frame offsets: 
#        150
#        16958
#        29265
#        45540
#        62643
#        74275
#        92258
#        110040
#        125840
#        140348
#        149538
#        166935
#
# Disc length: 2445 seconds
#
# Revision: 3
# Processed by: cddbd v1.5.2PL0 Copyright (c) Steve Scherf et al.
# Submitted via: ExactAudioCopy v0.95b4
#
DISCID=a6098b0c
DTITLE=The Tractors - Have Yourself a Tractors Christmas
DYEAR=1995
DGENRE=Christmas
TTITLE0=Santa Claus is Comin' to Town
TTITLE1=Jingle My Bells
TTITLE2=The Shelter
TTITLE3=Rockin' This Christmas
TTITLE4=Santa Looked a Lot Like Daddy
TTITLE5=Christmas Is Comin'
TTITLE6=Santa Claus Is Comin'
TTITLE7=Baby Wanna Be By You
TTITLE8=Swingin' Home for Christmas
TTITLE9=White Christmas
TTITLE10=The Santa Claus Boogie
TTITLE11=Silent Night, Christmas Blue
EXTD=
EXTT0=
EXTT1=
EXTT2=
EXTT3=
EXTT4=
EXTT5=
EXTT6=
EXTT7=
EXTT8=
EXTT9=
EXTT10=
EXTT11=
PLAYORDER=
